<svg xmlns="http://www.w3.org/2000/svg" viewBox="0 0 32 32">
  <rect width="32" height="32" rx="6" fill="#111111"/>
  <path d="M16.8 8.2c-2.4 0-4.3.5-5.6 1.5-1.3 1-2 2.4-2 4.1 0 1.4.4 2.6 1.3 3.5.9.9 2.6 1.7 5.2 2.4 2.1.5 3.5 1.1 4.1 1.6.6.5.9 1.2.9 2 0 1-.5 1.8-1.4 2.4-.9.6-2.2.9-3.9.9-1.6 0-2.9-.4-3.8-1.2-.9-.8-1.5-2-1.8-3.6l-2.6.5c.4 2 1.3 3.6 2.7 4.7 1.4 1.1 3.2 1.6 5.5 1.6 2.5 0 4.5-.6 5.9-1.7 1.4-1.1 2.1-2.7 2.1-4.6 0-1.6-.5-2.9-1.5-3.9-1-.9-2.8-1.8-5.5-2.5-2-.5-3.3-1-3.9-1.5-.6-.5-.9-1.1-.9-1.8 0-.9.4-1.6 1.2-2.1.8-.5 2-.8 3.5-.8 1.4 0 2.5.3 3.3.9.8.6 1.4 1.6 1.6 3l2.6-.4c-.3-1.9-1.1-3.4-2.4-4.5-1.3-1-3-1.5-5.1-1.5z" fill="#a97861"/>
</svg>
