<?xml version="1.0" encoding="UTF-8"?>
<svg xmlns="http://www.w3.org/2000/svg" id="Layer_1" viewBox="0 0 1350.86 170.59">
  <defs>
    <style>.cls-1{fill:#a97861;}</style>
  </defs>
  <path class="cls-1" d="M1281.24,9.71h68.46v9.06h-68.46v-9.06Z"></path>
  <path class="cls-1" d="M1281.24,34.65h68.46v9.29l-53.75,35.96h53.75v8.69h-68.46v-9.29l53.79-35.96h-53.79v-8.69Z"></path>
  <path class="cls-1" d="M1305.24,152.65l-2.29,9.06c-7.44-1.9-13.11-5.32-17.02-10.25-3.91-4.93-5.86-10.97-5.86-18.09s1.5-13.38,4.51-18c3-4.62,7.35-8.14,13.05-10.55,5.7-2.41,11.81-3.62,18.35-3.62,7.13,0,13.35,1.36,18.66,4.09,5.31,2.72,9.34,6.6,12.09,11.63,2.75,5.03,4.13,10.56,4.13,16.6,0,6.85-1.74,12.61-5.23,17.28-3.49,4.67-8.39,7.92-14.71,9.76l-2.1-8.92c4.98-1.59,8.61-3.89,10.88-6.91,2.27-3.02,3.41-6.82,3.41-11.39,0-5.26-1.26-9.66-3.78-13.19-2.52-3.53-5.91-6.02-10.16-7.45-4.25-1.43-8.63-2.15-13.15-2.15-5.82,0-10.9.85-15.25,2.54-4.34,1.7-7.59,4.33-9.74,7.92-2.15,3.58-3.22,7.46-3.22,11.63,0,5.07,1.46,9.37,4.39,12.89,2.93,3.52,7.27,5.9,13.03,7.14Z"></path>
  <path class="cls-1" d="M110.14,74.29c-7.68-4.04-19.58-7.98-35.37-11.71-18.8-4.44-25.75-7.89-28.27-10.01-2.49-2.09-3.7-4.5-3.7-7.36,0-3.17,1.23-5.54,3.86-7.45,4.73-3.44,11.51-5.18,20.15-5.18s14.52,1.59,18.48,4.72c3.9,3.09,6.51,8.4,7.75,15.78l.44,2.62,37.73-1.66-.1-2.97c-.53-15.41-6.23-27.93-16.93-37.21C103.57,4.66,87.74,0,67.13,0,54.56,0,43.63,1.94,34.65,5.78c-9.16,3.91-16.29,9.71-21.19,17.23-4.89,7.51-7.38,15.71-7.38,24.37,0,13.42,5.26,24.94,15.65,34.24,7.38,6.62,19.66,11.98,37.52,16.41,13.25,3.3,21.82,5.61,25.43,6.86,4.96,1.76,8.41,3.77,10.26,5.99,1.76,2.1,2.61,4.62,2.61,7.68,0,4.97-2.22,9.24-6.79,13.05-4.67,3.89-11.89,5.87-21.46,5.87-8.99,0-16.16-2.24-21.32-6.66-5.18-4.43-8.7-11.62-10.44-21.36l-.49-2.72L0,110.33l.36,3.04c2.18,18.48,9.02,32.8,20.33,42.55,11.28,9.74,27.53,14.67,48.29,14.67,14.14,0,26.17-2.03,35.77-6.04,9.79-4.09,17.48-10.45,22.86-18.9,5.35-8.41,8.06-17.56,8.06-27.21,0-10.57-2.29-19.63-6.8-26.91-4.5-7.26-10.8-13.06-18.73-17.24Z"></path>
  <polygon class="cls-1" points="283.24 2.71 150.84 2.71 150.84 35.62 198.04 35.62 198.04 167.77 236.15 167.77 236.15 35.62 283.24 35.62 283.24 2.71"></polygon>
  <path class="cls-1" d="M333.76,2.71l-64.29,165.06h40.56l13.13-36.13h59.42l13.89,36.13h41.43L371.8,2.71h-38.04ZM335.21,98.84l17.23-47.33,17.57,47.33h-34.8Z"></path>
  <polygon class="cls-1" points="492.02 134.97 492.02 4.02 453.91 4.02 453.91 167.77 571.88 167.77 571.88 134.97 492.02 134.97"></polygon>
  <path class="cls-1" d="M625.96,164.77L583.87,6.12h21.54l24.13,104c2.6,10.9,4.83,21.72,6.71,32.47,4.04-16.95,6.42-26.73,7.14-29.33l30.19-107.14h25.32l22.73,80.3c5.7,19.91,9.81,38.63,12.34,56.17,2.02-10.03,4.65-21.54,7.9-34.52l24.89-101.95h21.1l-43.5,158.65h-20.24l-33.44-120.88c-2.81-10.1-4.47-16.3-4.98-18.61-1.66,7.29-3.21,13.49-4.65,18.61l-33.66,120.88h-21.43Z"></path>
  <path class="cls-1" d="M801.06,87.5c0-26.33,7.07-46.95,21.21-61.85,14.14-14.9,32.39-22.35,54.76-22.35,14.65,0,27.85,3.5,39.61,10.5,11.76,7,20.72,16.76,26.89,29.27,6.17,12.52,9.25,26.71,9.25,42.58s-3.25,30.48-9.74,43.18c-6.49,12.7-15.69,22.31-27.6,28.84-11.9,6.53-24.75,9.79-38.53,9.79-14.93,0-28.28-3.61-40.04-10.82-11.76-7.21-20.67-17.06-26.73-29.54-6.06-12.48-9.09-25.68-9.09-39.61ZM822.71,87.82c0,19.12,5.14,34.18,15.42,45.18,10.28,11,23.18,16.5,38.69,16.5s28.8-5.56,39.01-16.67c10.21-11.11,15.31-26.87,15.31-47.29,0-12.91-2.18-24.19-6.55-33.82s-10.75-17.1-19.15-22.4c-8.41-5.3-17.84-7.95-28.3-7.95-14.86,0-27.65,5.1-38.36,15.31-10.71,10.21-16.07,27.25-16.07,51.13Z"></path>
  <path class="cls-1" d="M980.17,164.77V6.12h70.34c14.14,0,24.89,1.43,32.25,4.28,7.36,2.85,13.24,7.88,17.64,15.1,4.4,7.22,6.6,15.19,6.6,23.92,0,11.25-3.64,20.74-10.93,28.46-7.29,7.72-18.54,12.63-33.77,14.72,5.55,2.67,9.78,5.3,12.66,7.9,6.13,5.63,11.94,12.66,17.42,21.1l27.6,43.18h-26.41l-21-33.01c-6.13-9.52-11.18-16.81-15.15-21.86-3.97-5.05-7.52-8.58-10.66-10.61-3.14-2.02-6.33-3.43-9.58-4.22-2.38-.5-6.28-.76-11.69-.76h-24.35v70.45h-20.99ZM1001.16,76.14h45.13c9.59,0,17.1-.99,22.51-2.98,5.41-1.98,9.52-5.16,12.34-9.52,2.81-4.36,4.22-9.11,4.22-14.23,0-7.5-2.72-13.67-8.17-18.51-5.45-4.83-14.05-7.25-25.81-7.25h-50.21v52.49Z"></path>
  <path class="cls-1" d="M1139.04,164.77V6.12h20.99v78.68l78.79-78.68h28.46l-66.56,64.28,69.48,94.37h-27.71l-56.49-80.3-25.97,25.32v54.98h-20.99Z"></path>
</svg>
